<svg xmlns="http://www.w3.org/2000/svg" viewBox="0 0 1920 1080" width="1920" height="1080" role="img" aria-hidden="true" focusable="false"><rect x="0.0" y="0.0" width="1920.0" height="1080.0" fill="#070a0d"/><circle cx="487.4" cy="329.2" r="1.3" fill="#ecefee" opacity="0.5417739157166284"/><circle cx="1084.4" cy="35.2" r="1.2" fill="#ecefee" opacity="0.7184483371070587"/><circle cx="1096.6" cy="87.0" r="2.4" fill="#ecefee" opacity="0.3318373910696524"/><circle cx="1073.1" cy="208.9" r="2.0" fill="#ecefee" opacity="0.48841914161331"/><circle cx="752.5" cy="211.6" r="1.2" fill="#ecefee" opacity="0.5151750042225692"/><circle cx="711.5" cy="297.9" r="1.4" fill="#ecefee" opacity="0.5613249271715492"/><circle cx="1740.7" cy="231.5" r="1.7" fill="#ecefee" opacity="0.4658234692611313"/><circle cx="967.7" cy="455.5" r="1.2" fill="#ecefee" opacity="0.4864297612081404"/><circle cx="1004.3" cy="112.8" r="1.8" fill="#ecefee" opacity="0.4281557690806079"/><circle cx="377.5" cy="430.8" r="1.1" fill="#ecefee" opacity="0.4252870050574079"/><circle cx="1116.1" cy="246.3" r="1.0" fill="#ecefee" opacity="0.5382742681706649"/><circle cx="1660.8" cy="458.7" r="1.6" fill="#ecefee" opacity="0.27946149860739417"/><circle cx="652.4" cy="54.2" r="1.3" fill="#ecefee" opacity="0.7375318785459148"/><circle cx="986.6" cy="531.8" r="1.5" fill="#ecefee" opacity="0.4021185458090388"/><circle cx="514.4" cy="93.2" r="2.0" fill="#ecefee" opacity="0.6361861769383228"/><circle cx="1339.2" cy="335.1" r="2.3" fill="#ecefee" opacity="0.5705130726374505"/><circle cx="407.8" cy="338.7" r="1.8" fill="#ecefee" opacity="0.47246577496960906"/><circle cx="1248.1" cy="276.7" r="2.0" fill="#ecefee" opacity="0.7494419043318965"/><circle cx="865.7" cy="316.5" r="2.1" fill="#ecefee" opacity="0.6762084206574093"/><circle cx="987.7" cy="340.2" r="2.3" fill="#ecefee" opacity="0.7145309866287038"/><circle cx="1030.9" cy="344.5" r="1.4" fill="#ecefee" opacity="0.2671523491951071"/><circle cx="1029.2" cy="41.3" r="2.0" fill="#ecefee" opacity="0.6786979776752498"/><circle cx="1087.1" cy="209.4" r="1.2" fill="#ecefee" opacity="0.5498157179532632"/><circle cx="820.0" cy="31.2" r="1.1" fill="#ecefee" opacity="0.5129510587232224"/><circle cx="1883.0" cy="104.5" r="1.4" fill="#ecefee" opacity="0.45166879361500056"/><circle cx="263.0" cy="140.5" r="2.0" fill="#ecefee" opacity="0.29868452463286904"/><circle cx="880.5" cy="518.7" r="2.3" fill="#ecefee" opacity="0.6893582236415343"/><circle cx="1592.2" cy="491.6" r="1.1" fill="#ecefee" opacity="0.26753025971837097"/><circle cx="1208.0" cy="164.1" r="2.3" fill="#ecefee" opacity="0.39959592769378016"/><circle cx="874.8" cy="168.0" r="1.9" fill="#ecefee" opacity="0.32429989339703774"/><circle cx="862.1" cy="228.3" r="2.1" fill="#ecefee" opacity="0.27522595694746915"/><circle cx="1917.2" cy="418.5" r="1.3" fill="#ecefee" opacity="0.35119079866053987"/><circle cx="702.8" cy="360.0" r="1.3" fill="#ecefee" opacity="0.7392954096313844"/><circle cx="1758.5" cy="494.7" r="1.6" fill="#ecefee" opacity="0.381525400689156"/><circle cx="1835.0" cy="172.3" r="1.8" fill="#ecefee" opacity="0.48443715084808836"/><circle cx="970.4" cy="348.2" r="2.4" fill="#ecefee" opacity="0.2626075617803061"/><circle cx="1030.4" cy="503.8" r="2.2" fill="#ecefee" opacity="0.35663130633623785"/><circle cx="1371.5" cy="347.7" r="1.5" fill="#ecefee" opacity="0.3441913344013629"/><circle cx="690.3" cy="73.9" r="1.2" fill="#ecefee" opacity="0.5052076378514362"/><circle cx="792.5" cy="465.4" r="1.0" fill="#ecefee" opacity="0.7195201821841838"/><circle cx="1478.5" cy="388.2" r="1.0" fill="#ecefee" opacity="0.6598201730728936"/><circle cx="1816.8" cy="366.4" r="1.1" fill="#ecefee" opacity="0.6520692272909938"/><circle cx="146.5" cy="437.1" r="2.0" fill="#ecefee" opacity="0.35306364075195007"/><circle cx="160.8" cy="195.5" r="1.5" fill="#ecefee" opacity="0.3377332016388586"/><circle cx="1100.1" cy="285.2" r="2.4" fill="#ecefee" opacity="0.2524902240133052"/><circle cx="592.7" cy="373.1" r="1.4" fill="#ecefee" opacity="0.5871053928597147"/><circle cx="1498.6" cy="62.1" r="1.1" fill="#ecefee" opacity="0.2760316200322086"/><circle cx="1104.2" cy="150.6" r="1.8" fill="#ecefee" opacity="0.7033057934366893"/><circle cx="324.9" cy="387.2" r="2.4" fill="#ecefee" opacity="0.41535222328666577"/><circle cx="1269.5" cy="453.1" r="1.6" fill="#ecefee" opacity="0.5129609994697992"/><circle cx="1367.1" cy="109.8" r="1.2" fill="#ecefee" opacity="0.30036582540476847"/><circle cx="1462.2" cy="210.1" r="1.7" fill="#ecefee" opacity="0.62582854282905"/><circle cx="1898.2" cy="44.1" r="2.4" fill="#ecefee" opacity="0.6620632478972459"/><circle cx="23.4" cy="283.2" r="1.8" fill="#ecefee" opacity="0.6089638435213862"/><circle cx="782.6" cy="484.4" r="1.5" fill="#ecefee" opacity="0.2755201132002624"/><circle cx="1811.0" cy="24.6" r="2.1" fill="#ecefee" opacity="0.3564458978159391"/><circle cx="1364.6" cy="176.6" r="1.2" fill="#ecefee" opacity="0.5260025832789081"/><circle cx="969.2" cy="439.8" r="1.8" fill="#ecefee" opacity="0.3212194560220354"/><circle cx="93.2" cy="60.2" r="2.2" fill="#ecefee" opacity="0.5676340888248588"/><circle cx="293.4" cy="338.9" r="1.4" fill="#ecefee" opacity="0.2879604513275715"/><circle cx="911.1" cy="364.3" r="1.6" fill="#ecefee" opacity="0.3690228993822353"/><circle cx="1179.0" cy="317.9" r="2.2" fill="#ecefee" opacity="0.5094900832579398"/><circle cx="986.8" cy="477.8" r="1.1" fill="#ecefee" opacity="0.5056977147543735"/><circle cx="1760.6" cy="207.0" r="1.9" fill="#ecefee" opacity="0.3976444127604015"/><circle cx="909.6" cy="193.5" r="1.7" fill="#ecefee" opacity="0.736386619814796"/><circle cx="572.0" cy="217.4" r="1.1" fill="#ecefee" opacity="0.33938643814930636"/><circle cx="1122.0" cy="42.8" r="2.1" fill="#ecefee" opacity="0.678984558870774"/><circle cx="1572.8" cy="111.1" r="2.2" fill="#ecefee" opacity="0.47762620678456547"/><circle cx="261.2" cy="384.4" r="2.3" fill="#ecefee" opacity="0.6627132468182814"/><circle cx="506.7" cy="367.3" r="1.7" fill="#ecefee" opacity="0.6644513761022715"/><rect x="-20.0" y="756.9" width="51.6" height="103.1" fill="#161e24" opacity="0.55"/><rect x="37.6" y="712.5" width="54.4" height="147.5" fill="#161e24" opacity="0.55"/><rect x="53.9" y="696.5" width="21.8" height="16.0" fill="#161e24" opacity="0.55"/><rect x="103.8" y="629.9" width="57.2" height="230.1" fill="#161e24" opacity="0.55"/><rect x="121.0" y="613.9" width="22.9" height="16.0" fill="#161e24" opacity="0.55"/><rect x="176.6" y="609.6" width="81.3" height="250.4" fill="#161e24" opacity="0.55"/><rect x="266.1" y="610.2" width="60.3" height="249.8" fill="#161e24" opacity="0.55"/><rect x="339.9" y="764.4" width="64.8" height="95.6" fill="#161e24" opacity="0.55"/><rect x="409.4" y="730.4" width="83.6" height="129.6" fill="#161e24" opacity="0.55"/><rect x="509.1" y="644.5" width="60.2" height="215.5" fill="#161e24" opacity="0.55"/><rect x="527.2" y="628.5" width="24.1" height="16.0" fill="#161e24" opacity="0.55"/><rect x="574.4" y="724.8" width="65.6" height="135.2" fill="#161e24" opacity="0.55"/><rect x="594.1" y="708.8" width="26.3" height="16.0" fill="#161e24" opacity="0.55"/><rect x="650.6" y="705.3" width="81.9" height="154.7" fill="#161e24" opacity="0.55"/><rect x="740.1" y="720.3" width="85.0" height="139.7" fill="#161e24" opacity="0.55"/><rect x="765.6" y="704.3" width="34.0" height="16.0" fill="#161e24" opacity="0.55"/><rect x="0.0" y="860.0" width="1920.0" height="220.0" fill="#070a0d"/><rect x="0.0" y="860.0" width="1920.0" height="6.0" fill="#31404a" opacity="0.6"/><g><rect x="-30.0" y="586.4" width="153.8" height="273.6" fill="#10161b"/><rect x="-38.0" y="572.4" width="169.8" height="16.0" fill="#070a0d"/><rect x="39.2" y="422.2" width="84.6" height="164.2" fill="#2a333c"/><rect x="33.2" y="410.2" width="96.6" height="12.0" fill="#070a0d"/><rect x="-17.7" y="646.6" width="92.3" height="109.4" fill="#a9e7ff" opacity="0.5"/><rect x="-14.5" y="654.2" width="16.6" height="39.4" fill="#a9e7ff" opacity="0.7056617726865846"/><rect x="8.6" y="654.2" width="16.6" height="39.4" fill="#a9e7ff" opacity="0.8849221288150633"/><rect x="31.7" y="654.2" width="16.6" height="39.4" fill="#a9e7ff" opacity="0.7398009296761436"/><rect x="54.8" y="654.2" width="16.6" height="39.4" fill="#a9e7ff" opacity="0.6308430648166166"/><rect x="-14.5" y="709.0" width="16.6" height="39.4" fill="#070a0d" opacity="0.85"/><rect x="8.6" y="709.0" width="16.6" height="39.4" fill="#a9e7ff" opacity="0.6659328320883939"/><rect x="31.7" y="709.0" width="16.6" height="39.4" fill="#a9e7ff" opacity="0.8215347936490278"/><rect x="54.8" y="709.0" width="16.6" height="39.4" fill="#070a0d" opacity="0.85"/><rect x="83.8" y="798.0" width="21.5" height="62.0" fill="#070a0d"/><rect x="140.8" y="806.7" width="10.0" height="53.3" fill="#070a0d" opacity="0.8"/><circle cx="145.8" cy="784.8" r="43.9" fill="#202a32" opacity="0.9"/><circle cx="121.7" cy="795.8" r="31.6" fill="#202a32" opacity="0.9"/><circle cx="170.0" cy="793.6" r="31.6" fill="#202a32" opacity="0.9"/><rect x="180.3" y="572.6" width="226.2" height="287.4" fill="#202a32"/><polygon points="172.3,572.6 293.4,504.7 414.5,572.6" fill="#070a0d"/><rect x="275.3" y="514.7" width="36.2" height="40.0" fill="#161e24"/><rect x="208.5" y="618.4" width="28.5" height="29.0" fill="#a9e7ff" opacity="0.9345899656018908"/><rect x="248.1" y="618.4" width="28.5" height="29.0" fill="#a9e7ff" opacity="0.7849246481486447"/><rect x="208.5" y="658.7" width="28.5" height="29.0" fill="#a9e7ff" opacity="0.6720949216999421"/><rect x="248.1" y="658.7" width="28.5" height="29.0" fill="#a9e7ff" opacity="0.9373761246931458"/><rect x="310.3" y="618.4" width="28.5" height="29.0" fill="#a9e7ff" opacity="0.8337466411037082"/><rect x="349.9" y="618.4" width="28.5" height="29.0" fill="#a9e7ff" opacity="0.5536842027862302"/><rect x="310.3" y="658.7" width="28.5" height="29.0" fill="#a9e7ff" opacity="0.6126059714196973"/><rect x="349.9" y="658.7" width="28.5" height="29.0" fill="#a9e7ff" opacity="0.9126989929809248"/><rect x="277.6" y="796.0" width="31.7" height="64.0" fill="#070a0d"/><polygon points="267.6,796.0 293.4,768.0 319.3,796.0" fill="#202a32"/><rect x="423.5" y="789.5" width="10.0" height="70.5" fill="#070a0d" opacity="0.8"/><circle cx="428.5" cy="770.3" r="38.5" fill="#202a32" opacity="0.9"/><circle cx="407.4" cy="779.9" r="27.7" fill="#202a32" opacity="0.9"/><circle cx="449.7" cy="778.0" r="27.7" fill="#202a32" opacity="0.9"/><rect x="450.7" y="666.4" width="206.7" height="193.6" fill="#161e24"/><polygon points="444.7,666.4 554.1,558.9 663.4,666.4" fill="#070a0d"/><polygon points="516.9,618.0 547.9,587.0 578.9,618.0" fill="#070a0d"/><rect x="534.2" y="624.0" width="27.3" height="38.4" fill="#161e24"/><rect x="493.7" y="729.3" width="50.6" height="44.6" fill="#070a0d" opacity="0.85"/><rect x="563.9" y="729.3" width="50.6" height="44.6" fill="#070a0d" opacity="0.85"/><rect x="533.4" y="802.0" width="41.3" height="58.0" fill="#070a0d"/><rect x="657.4" y="578.8" width="155.8" height="281.2" fill="#31404a"/><polygon points="647.4,541.1 688.6,510.3 782.1,510.3 823.2,541.1 823.2,578.8 647.4,578.8" fill="#070a0d"/><rect x="666.8" y="612.6" width="31.2" height="196.8" fill="#070a0d" opacity="0.85"/><rect x="714.4" y="635.6" width="20.6" height="60.7" fill="#a9e7ff" opacity="0.9265143950373202"/><rect x="743.0" y="635.6" width="20.6" height="60.7" fill="#070a0d" opacity="0.85"/><rect x="771.5" y="635.6" width="20.6" height="60.7" fill="#070a0d" opacity="0.85"/><rect x="671.5" y="800.0" width="23.4" height="60.0" fill="#a9e7ff" opacity="0.4"/><rect x="813.2" y="506.7" width="160.4" height="353.3" fill="#2a333c"/><polygon points="807.2,506.7 893.4,407.3 979.6,506.7" fill="#070a0d"/><rect x="889.4" y="381.3" width="8.0" height="30.0" fill="#070a0d"/><rect x="803.2" y="814.0" width="180.4" height="46.0" fill="#161e24" opacity="0.9"/><rect x="821.2" y="814.0" width="6.0" height="46.0" fill="#ecefee" opacity="0.5"/><rect x="869.4" y="814.0" width="6.0" height="46.0" fill="#ecefee" opacity="0.5"/><rect x="917.5" y="814.0" width="6.0" height="46.0" fill="#ecefee" opacity="0.5"/><rect x="965.6" y="814.0" width="6.0" height="46.0" fill="#ecefee" opacity="0.5"/><rect x="813.2" y="655.1" width="160.4" height="5.0" fill="#a9e7ff" opacity="0.55"/><rect x="838.2" y="539.1" width="29.3" height="43.2" fill="#a9e7ff" opacity="0.7533586152647392"/><rect x="878.8" y="539.1" width="29.3" height="43.2" fill="#070a0d" opacity="0.85"/><rect x="919.4" y="539.1" width="29.3" height="43.2" fill="#070a0d" opacity="0.85"/><rect x="838.2" y="599.2" width="29.3" height="43.2" fill="#070a0d" opacity="0.85"/><rect x="878.8" y="599.2" width="29.3" height="43.2" fill="#070a0d" opacity="0.85"/><rect x="919.4" y="599.2" width="29.3" height="43.2" fill="#070a0d" opacity="0.85"/><rect x="880.6" y="748.0" width="25.7" height="66.0" fill="#070a0d"/><rect x="884.6" y="754.0" width="17.7" height="30.0" fill="#a9e7ff" opacity="0.5"/><rect x="990.6" y="784.9" width="10.0" height="75.1" fill="#070a0d" opacity="0.8"/><circle cx="995.6" cy="762.3" r="45.2" fill="#202a32" opacity="0.9"/><circle cx="970.8" cy="773.6" r="32.5" fill="#202a32" opacity="0.9"/><circle cx="1020.5" cy="771.3" r="32.5" fill="#202a32" opacity="0.9"/><rect x="1026.1" y="631.8" width="229.7" height="228.2" fill="#202a32"/><polygon points="1003.1,631.8 1140.9,553.7 1278.7,631.8" fill="#070a0d"/><rect x="1012.1" y="790.0" width="257.7" height="70.0" fill="#161e24" opacity="0.92"/><rect x="1012.1" y="780.0" width="257.7" height="12.0" fill="#070a0d"/><rect x="1036.1" y="790.0" width="10.0" height="70.0" fill="#ecefee" opacity="0.55"/><rect x="1140.9" y="790.0" width="10.0" height="70.0" fill="#ecefee" opacity="0.55"/><rect x="1245.8" y="790.0" width="10.0" height="70.0" fill="#ecefee" opacity="0.55"/><rect x="1064.0" y="664.6" width="29.8" height="65.7" fill="#a9e7ff" opacity="0.6267591655139826"/><rect x="1105.4" y="664.6" width="29.8" height="65.7" fill="#a9e7ff" opacity="0.6837584461024542"/><rect x="1146.7" y="664.6" width="29.8" height="65.7" fill="#a9e7ff" opacity="0.7010929249478384"/><rect x="1188.1" y="664.6" width="29.8" height="65.7" fill="#070a0d" opacity="0.85"/><rect x="1123.7" y="734.0" width="34.5" height="56.0" fill="#070a0d"/><rect x="1267.8" y="764.0" width="8.0" height="96.0" fill="#070a0d"/><circle cx="1271.8" cy="760.0" r="12.0" fill="#a9e7ff" opacity="0.85"/><rect x="1306.5" y="619.9" width="168.3" height="240.1" fill="#10161b"/><rect x="1298.5" y="605.9" width="184.3" height="16.0" fill="#070a0d"/><rect x="1382.2" y="475.9" width="92.6" height="144.0" fill="#202a32"/><rect x="1376.2" y="463.9" width="104.6" height="12.0" fill="#070a0d"/><rect x="1319.9" y="672.7" width="101.0" height="96.0" fill="#a9e7ff" opacity="0.5"/><rect x="1323.5" y="679.5" width="18.2" height="34.6" fill="#a9e7ff" opacity="0.6253179955552921"/><rect x="1348.7" y="679.5" width="18.2" height="34.6" fill="#070a0d" opacity="0.85"/><rect x="1374.0" y="679.5" width="18.2" height="34.6" fill="#070a0d" opacity="0.85"/><rect x="1399.2" y="679.5" width="18.2" height="34.6" fill="#a9e7ff" opacity="0.6546363950776394"/><rect x="1323.5" y="727.5" width="18.2" height="34.6" fill="#a9e7ff" opacity="0.6162984858995577"/><rect x="1348.7" y="727.5" width="18.2" height="34.6" fill="#070a0d" opacity="0.85"/><rect x="1374.0" y="727.5" width="18.2" height="34.6" fill="#a9e7ff" opacity="0.6831427360623088"/><rect x="1399.2" y="727.5" width="18.2" height="34.6" fill="#070a0d" opacity="0.85"/><rect x="1431.0" y="798.0" width="23.6" height="62.0" fill="#070a0d"/><rect x="1474.8" y="565.3" width="220.9" height="294.7" fill="#161e24"/><polygon points="1466.8,565.3 1585.2,499.0 1703.7,565.3" fill="#070a0d"/><rect x="1567.6" y="509.0" width="35.3" height="40.0" fill="#161e24"/><rect x="1502.3" y="612.3" width="27.8" height="29.7" fill="#a9e7ff" opacity="0.8033258182069629"/><rect x="1540.9" y="612.3" width="27.8" height="29.7" fill="#070a0d" opacity="0.85"/><rect x="1502.3" y="653.6" width="27.8" height="29.7" fill="#a9e7ff" opacity="0.593457485069357"/><rect x="1540.9" y="653.6" width="27.8" height="29.7" fill="#070a0d" opacity="0.85"/><rect x="1601.7" y="612.3" width="27.8" height="29.7" fill="#a9e7ff" opacity="0.8946420668278892"/><rect x="1640.4" y="612.3" width="27.8" height="29.7" fill="#070a0d" opacity="0.85"/><rect x="1601.7" y="653.6" width="27.8" height="29.7" fill="#a9e7ff" opacity="0.5763912865037886"/><rect x="1640.4" y="653.6" width="27.8" height="29.7" fill="#a9e7ff" opacity="0.9412365078331865"/><rect x="1569.8" y="796.0" width="30.9" height="64.0" fill="#070a0d"/><polygon points="1559.8,796.0 1585.2,768.0 1610.7,796.0" fill="#161e24"/><rect x="1695.7" y="687.4" width="164.5" height="172.6" fill="#2a333c"/><polygon points="1689.7,687.4 1777.9,601.9 1866.1,687.4" fill="#070a0d"/><rect x="1729.8" y="743.5" width="40.3" height="39.8" fill="#a9e7ff" opacity="0.9476144182283898"/><rect x="1785.7" y="743.5" width="40.3" height="39.8" fill="#a9e7ff" opacity="0.7141646265518484"/><rect x="1761.5" y="802.0" width="32.9" height="58.0" fill="#070a0d"/><rect x="1860.1" y="571.4" width="188.6" height="288.6" fill="#161e24"/><polygon points="1850.1,525.7 1897.9,488.4 2011.0,488.4 2058.8,525.7 2058.8,571.4 1850.1,571.4" fill="#070a0d"/><rect x="1871.5" y="606.0" width="37.7" height="202.0" fill="#070a0d" opacity="0.85"/><rect x="1929.1" y="629.7" width="24.9" height="62.3" fill="#a9e7ff" opacity="0.6611380390713573"/><rect x="1963.7" y="629.7" width="24.9" height="62.3" fill="#070a0d" opacity="0.85"/><rect x="1998.3" y="629.7" width="24.9" height="62.3" fill="#070a0d" opacity="0.85"/><rect x="1877.1" y="800.0" width="28.3" height="60.0" fill="#a9e7ff" opacity="0.4"/></g></svg>