<svg xmlns="http://www.w3.org/2000/svg" viewBox="0 0 1920 1080" width="1920" height="1080" role="img" aria-hidden="true" focusable="false"><rect x="0.0" y="0.0" width="1920.0" height="1080.0" fill="#10161b"/><circle cx="868.6" cy="307.3" r="2.3" fill="#ecefee" opacity="0.48282503504988666"/><circle cx="975.1" cy="321.4" r="1.3" fill="#ecefee" opacity="0.5059543195209028"/><circle cx="1209.4" cy="427.0" r="1.1" fill="#ecefee" opacity="0.40170063131226275"/><circle cx="174.1" cy="435.5" r="2.0" fill="#ecefee" opacity="0.270940168184923"/><circle cx="1885.8" cy="515.1" r="1.9" fill="#ecefee" opacity="0.5577813522892854"/><circle cx="302.4" cy="27.7" r="1.7" fill="#ecefee" opacity="0.2797755525844275"/><circle cx="365.2" cy="144.2" r="1.0" fill="#ecefee" opacity="0.48196723061164226"/><circle cx="845.8" cy="452.3" r="1.7" fill="#ecefee" opacity="0.5701458539595885"/><circle cx="959.6" cy="360.0" r="1.6" fill="#ecefee" opacity="0.3890814498319429"/><circle cx="1915.5" cy="531.0" r="2.2" fill="#ecefee" opacity="0.6039048107489747"/><circle cx="605.3" cy="137.9" r="1.4" fill="#ecefee" opacity="0.28511174977996295"/><circle cx="1471.3" cy="225.5" r="2.2" fill="#ecefee" opacity="0.44325676585296725"/><circle cx="1839.4" cy="454.8" r="1.0" fill="#ecefee" opacity="0.35485870736480557"/><circle cx="1747.7" cy="261.2" r="2.4" fill="#ecefee" opacity="0.4487121940396406"/><circle cx="140.2" cy="343.0" r="2.1" fill="#ecefee" opacity="0.38488779342507135"/><circle cx="167.3" cy="190.7" r="2.3" fill="#ecefee" opacity="0.6290202584968794"/><circle cx="226.5" cy="146.4" r="1.1" fill="#ecefee" opacity="0.27994670147053835"/><circle cx="1530.3" cy="111.2" r="1.8" fill="#ecefee" opacity="0.4737124387505108"/><circle cx="366.1" cy="395.6" r="1.2" fill="#ecefee" opacity="0.5718575618555836"/><circle cx="223.7" cy="235.9" r="1.3" fill="#ecefee" opacity="0.38489748859529915"/><circle cx="1864.2" cy="432.3" r="1.4" fill="#ecefee" opacity="0.6924325563744854"/><circle cx="404.6" cy="222.3" r="2.2" fill="#ecefee" opacity="0.5709178282952303"/><circle cx="192.6" cy="527.7" r="1.3" fill="#ecefee" opacity="0.3791387789308102"/><circle cx="1483.6" cy="188.8" r="1.4" fill="#ecefee" opacity="0.2866992766942121"/><circle cx="173.0" cy="319.1" r="1.3" fill="#ecefee" opacity="0.5506419217909694"/><circle cx="713.7" cy="252.6" r="2.3" fill="#ecefee" opacity="0.4918622666312725"/><circle cx="1103.2" cy="464.7" r="1.3" fill="#ecefee" opacity="0.3270676594630304"/><circle cx="1744.2" cy="439.7" r="1.3" fill="#ecefee" opacity="0.34490033298163003"/><circle cx="1419.7" cy="502.6" r="1.3" fill="#ecefee" opacity="0.7250679261543227"/><circle cx="1693.8" cy="329.7" r="1.6" fill="#ecefee" opacity="0.301919840682474"/><circle cx="74.3" cy="514.0" r="1.3" fill="#ecefee" opacity="0.6022897302791885"/><circle cx="493.4" cy="442.7" r="1.8" fill="#ecefee" opacity="0.39671767324236856"/><circle cx="336.8" cy="389.7" r="1.1" fill="#ecefee" opacity="0.3641981686625626"/><circle cx="1074.0" cy="457.5" r="1.9" fill="#ecefee" opacity="0.3901096962854275"/><circle cx="1761.3" cy="124.7" r="1.0" fill="#ecefee" opacity="0.3845969640144205"/><circle cx="855.8" cy="51.0" r="1.2" fill="#ecefee" opacity="0.43439268518613133"/><circle cx="1098.6" cy="87.5" r="1.5" fill="#ecefee" opacity="0.6954701149849063"/><circle cx="1882.5" cy="357.1" r="2.0" fill="#ecefee" opacity="0.5422201340900894"/><circle cx="269.5" cy="38.0" r="1.0" fill="#ecefee" opacity="0.7051062261964085"/><circle cx="1345.9" cy="514.1" r="1.0" fill="#ecefee" opacity="0.5680922607885064"/><circle cx="925.9" cy="394.9" r="1.4" fill="#ecefee" opacity="0.7496788131908776"/><circle cx="144.5" cy="300.3" r="2.0" fill="#ecefee" opacity="0.7000979406246894"/><circle cx="1415.2" cy="381.1" r="2.1" fill="#ecefee" opacity="0.70750128977602"/><circle cx="675.5" cy="371.6" r="2.3" fill="#ecefee" opacity="0.6855506295610054"/><circle cx="800.9" cy="425.7" r="2.2" fill="#ecefee" opacity="0.5364037491922546"/><circle cx="1199.9" cy="216.2" r="1.8" fill="#ecefee" opacity="0.5544334503719549"/><circle cx="154.0" cy="348.1" r="2.4" fill="#ecefee" opacity="0.6898959145555135"/><circle cx="1398.2" cy="219.3" r="2.0" fill="#ecefee" opacity="0.5404764393633448"/><circle cx="845.8" cy="450.3" r="1.1" fill="#ecefee" opacity="0.6251050886308078"/><circle cx="57.2" cy="328.6" r="1.7" fill="#ecefee" opacity="0.36511082186324806"/><circle cx="1340.8" cy="275.2" r="1.9" fill="#ecefee" opacity="0.7102321367200364"/><circle cx="491.2" cy="25.8" r="1.4" fill="#ecefee" opacity="0.5890684895655441"/><circle cx="388.9" cy="107.0" r="2.3" fill="#ecefee" opacity="0.579995002337923"/><circle cx="848.5" cy="477.6" r="1.5" fill="#ecefee" opacity="0.5829495312668357"/><circle cx="381.1" cy="241.1" r="2.1" fill="#ecefee" opacity="0.7071105994295026"/><circle cx="1690.1" cy="217.3" r="1.8" fill="#ecefee" opacity="0.4082434222470691"/><circle cx="261.5" cy="274.8" r="2.2" fill="#ecefee" opacity="0.6743601524851189"/><circle cx="1365.5" cy="507.5" r="1.4" fill="#ecefee" opacity="0.33456445527385686"/><circle cx="865.2" cy="161.2" r="1.3" fill="#ecefee" opacity="0.45699240037258004"/><circle cx="1201.4" cy="273.5" r="1.4" fill="#ecefee" opacity="0.669559206224613"/><circle cx="1885.5" cy="252.2" r="1.1" fill="#ecefee" opacity="0.2657428878475864"/><circle cx="1675.8" cy="41.3" r="2.0" fill="#ecefee" opacity="0.5352909801684869"/><circle cx="593.3" cy="426.2" r="1.0" fill="#ecefee" opacity="0.31794057937409376"/><circle cx="873.3" cy="32.7" r="2.2" fill="#ecefee" opacity="0.36870450444241715"/><circle cx="270.5" cy="44.1" r="1.9" fill="#ecefee" opacity="0.4732403833755113"/><circle cx="1209.5" cy="356.2" r="2.1" fill="#ecefee" opacity="0.7292303259595051"/><circle cx="1314.2" cy="122.3" r="1.7" fill="#ecefee" opacity="0.3393430475675423"/><circle cx="20.7" cy="262.3" r="2.0" fill="#ecefee" opacity="0.33954940448126425"/><circle cx="522.9" cy="197.4" r="2.0" fill="#ecefee" opacity="0.5102114733324051"/><circle cx="1179.7" cy="408.1" r="1.6" fill="#ecefee" opacity="0.6459661189458923"/><circle cx="1651.2" cy="172.8" r="46.0" fill="#ecefee" opacity="0.9"/><circle cx="1641.6" cy="167.4" r="46.0" fill="#10161b" opacity="0.35"/><rect x="-20.0" y="658.2" width="63.7" height="201.8" fill="#161e24" opacity="0.55"/><rect x="49.7" y="706.3" width="40.5" height="153.7" fill="#161e24" opacity="0.55"/><rect x="61.9" y="690.3" width="16.2" height="16.0" fill="#161e24" opacity="0.55"/><rect x="105.6" y="667.8" width="74.5" height="192.2" fill="#161e24" opacity="0.55"/><rect x="193.4" y="695.2" width="47.3" height="164.8" fill="#161e24" opacity="0.55"/><rect x="207.6" y="679.2" width="18.9" height="16.0" fill="#161e24" opacity="0.55"/><rect x="257.3" y="630.8" width="42.9" height="229.2" fill="#161e24" opacity="0.55"/><rect x="270.2" y="614.8" width="17.2" height="16.0" fill="#161e24" opacity="0.55"/><rect x="313.9" y="701.2" width="56.8" height="158.8" fill="#161e24" opacity="0.55"/><rect x="375.0" y="614.4" width="43.0" height="245.6" fill="#161e24" opacity="0.55"/><rect x="423.3" y="609.1" width="89.4" height="250.9" fill="#161e24" opacity="0.55"/><rect x="450.1" y="593.1" width="35.7" height="16.0" fill="#161e24" opacity="0.55"/><rect x="522.6" y="716.9" width="46.8" height="143.1" fill="#161e24" opacity="0.55"/><rect x="575.7" y="761.3" width="74.8" height="98.7" fill="#161e24" opacity="0.55"/><rect x="598.1" y="745.3" width="29.9" height="16.0" fill="#161e24" opacity="0.55"/><rect x="665.9" y="698.8" width="60.0" height="161.2" fill="#161e24" opacity="0.55"/><rect x="736.6" y="764.8" width="59.2" height="95.2" fill="#161e24" opacity="0.55"/><rect x="0.0" y="860.0" width="1920.0" height="220.0" fill="#070a0d"/><rect x="0.0" y="860.0" width="1920.0" height="6.0" fill="#31404a" opacity="0.6"/><g><rect x="-30.0" y="596.5" width="222.5" height="263.5" fill="#2a333c"/><polygon points="-40.0,542.7 14.5,498.6 148.0,498.6 202.5,542.7 202.5,596.5 -40.0,596.5" fill="#070a0d"/><rect x="-16.7" y="628.1" width="44.5" height="184.4" fill="#070a0d" opacity="0.85"/><rect x="51.4" y="649.7" width="29.4" height="56.9" fill="#58c7ff" opacity="0.7314144617226026"/><rect x="92.2" y="649.7" width="29.4" height="56.9" fill="#070a0d" opacity="0.85"/><rect x="132.9" y="649.7" width="29.4" height="56.9" fill="#070a0d" opacity="0.85"/><rect x="-10.0" y="800.0" width="33.4" height="60.0" fill="#58c7ff" opacity="0.4"/><rect x="204.5" y="764.0" width="8.0" height="96.0" fill="#070a0d"/><circle cx="208.5" cy="760.0" r="12.0" fill="#a9e7ff" opacity="0.85"/><rect x="250.1" y="503.3" width="213.7" height="356.7" fill="#2a333c"/><polygon points="244.1,503.3 357.0,370.8 469.8,503.3" fill="#070a0d"/><rect x="353.0" y="344.8" width="8.0" height="30.0" fill="#070a0d"/><rect x="404.0" y="433.3" width="59.8" height="426.7" fill="#2a333c"/><polygon points="400.0,433.3 433.9,379.5 467.8,433.3" fill="#070a0d"/><rect x="240.1" y="814.0" width="233.7" height="46.0" fill="#161e24" opacity="0.9"/><rect x="258.1" y="814.0" width="6.0" height="46.0" fill="#ecefee" opacity="0.5"/><rect x="324.0" y="814.0" width="6.0" height="46.0" fill="#ecefee" opacity="0.5"/><rect x="389.9" y="814.0" width="6.0" height="46.0" fill="#ecefee" opacity="0.5"/><rect x="455.8" y="814.0" width="6.0" height="46.0" fill="#ecefee" opacity="0.5"/><rect x="250.1" y="653.1" width="213.7" height="5.0" fill="#58c7ff" opacity="0.55"/><rect x="283.3" y="535.8" width="39.0" height="43.7" fill="#58c7ff" opacity="0.8964633429597184"/><rect x="337.5" y="535.8" width="39.0" height="43.7" fill="#070a0d" opacity="0.85"/><rect x="391.6" y="535.8" width="39.0" height="43.7" fill="#070a0d" opacity="0.85"/><rect x="283.3" y="596.5" width="39.0" height="43.7" fill="#58c7ff" opacity="0.6469167557358257"/><rect x="337.5" y="596.5" width="39.0" height="43.7" fill="#58c7ff" opacity="0.5851369439880805"/><rect x="391.6" y="596.5" width="39.0" height="43.7" fill="#58c7ff" opacity="0.9406994336568925"/><rect x="339.9" y="748.0" width="34.2" height="66.0" fill="#070a0d"/><rect x="343.9" y="754.0" width="26.2" height="30.0" fill="#58c7ff" opacity="0.5"/><rect x="463.8" y="621.3" width="171.0" height="238.7" fill="#10161b"/><polygon points="446.7,621.3 549.3,563.1 651.9,621.3" fill="#070a0d"/><rect x="449.8" y="790.0" width="199.0" height="70.0" fill="#161e24" opacity="0.92"/><rect x="449.8" y="780.0" width="199.0" height="12.0" fill="#070a0d"/><rect x="473.8" y="790.0" width="10.0" height="70.0" fill="#ecefee" opacity="0.55"/><rect x="549.3" y="790.0" width="10.0" height="70.0" fill="#ecefee" opacity="0.55"/><rect x="624.8" y="790.0" width="10.0" height="70.0" fill="#ecefee" opacity="0.55"/><rect x="492.1" y="654.6" width="22.2" height="68.8" fill="#58c7ff" opacity="0.5831090332184281"/><rect x="522.8" y="654.6" width="22.2" height="68.8" fill="#58c7ff" opacity="0.7701207709950717"/><rect x="553.6" y="654.6" width="22.2" height="68.8" fill="#070a0d" opacity="0.85"/><rect x="584.4" y="654.6" width="22.2" height="68.8" fill="#58c7ff" opacity="0.5613641447374061"/><rect x="536.5" y="734.0" width="25.6" height="56.0" fill="#070a0d"/><rect x="634.8" y="574.0" width="155.1" height="286.0" fill="#161e24"/><rect x="626.8" y="560.0" width="171.1" height="16.0" fill="#070a0d"/><rect x="634.8" y="402.4" width="85.3" height="171.6" fill="#2a333c"/><rect x="628.8" y="390.4" width="97.3" height="12.0" fill="#070a0d"/><rect x="647.2" y="636.9" width="93.1" height="114.4" fill="#58c7ff" opacity="0.5"/><rect x="650.4" y="644.9" width="16.8" height="41.2" fill="#58c7ff" opacity="0.756609967054627"/><rect x="673.7" y="644.9" width="16.8" height="41.2" fill="#070a0d" opacity="0.85"/><rect x="697.0" y="644.9" width="16.8" height="41.2" fill="#070a0d" opacity="0.85"/><rect x="720.3" y="644.9" width="16.8" height="41.2" fill="#58c7ff" opacity="0.9282989587781987"/><rect x="650.4" y="702.1" width="16.8" height="41.2" fill="#58c7ff" opacity="0.9296617498667928"/><rect x="673.7" y="702.1" width="16.8" height="41.2" fill="#58c7ff" opacity="0.6385656667930546"/><rect x="697.0" y="702.1" width="16.8" height="41.2" fill="#58c7ff" opacity="0.6660678709481945"/><rect x="720.3" y="702.1" width="16.8" height="41.2" fill="#070a0d" opacity="0.85"/><rect x="749.6" y="798.0" width="21.7" height="62.0" fill="#070a0d"/><rect x="789.9" y="557.8" width="191.8" height="302.2" fill="#31404a"/><polygon points="781.9,557.8 885.8,500.3 989.7,557.8" fill="#070a0d"/><rect x="870.5" y="510.3" width="30.7" height="40.0" fill="#161e24"/><rect x="813.8" y="606.0" width="24.2" height="30.5" fill="#58c7ff" opacity="0.8185194622910528"/><rect x="847.4" y="606.0" width="24.2" height="30.5" fill="#070a0d" opacity="0.85"/><rect x="813.8" y="648.4" width="24.2" height="30.5" fill="#070a0d" opacity="0.85"/><rect x="847.4" y="648.4" width="24.2" height="30.5" fill="#58c7ff" opacity="0.6717824097000695"/><rect x="900.1" y="606.0" width="24.2" height="30.5" fill="#58c7ff" opacity="0.7678848073608456"/><rect x="933.7" y="606.0" width="24.2" height="30.5" fill="#58c7ff" opacity="0.7490590399532533"/><rect x="900.1" y="648.4" width="24.2" height="30.5" fill="#58c7ff" opacity="0.5957122489904586"/><rect x="933.7" y="648.4" width="24.2" height="30.5" fill="#58c7ff" opacity="0.7008120865456924"/><rect x="872.4" y="796.0" width="26.9" height="64.0" fill="#070a0d"/><polygon points="862.4,796.0 885.8,768.0 909.2,796.0" fill="#31404a"/><rect x="981.7" y="657.9" width="153.5" height="202.1" fill="#31404a"/><polygon points="975.7,657.9 1058.5,578.1 1141.2,657.9" fill="#070a0d"/><rect x="1013.6" y="723.5" width="37.6" height="46.6" fill="#58c7ff" opacity="0.7464161786235035"/><rect x="1065.8" y="723.5" width="37.6" height="46.6" fill="#070a0d" opacity="0.85"/><rect x="1043.1" y="802.0" width="30.7" height="58.0" fill="#070a0d"/><rect x="1147.2" y="764.0" width="8.0" height="96.0" fill="#070a0d"/><circle cx="1151.2" cy="760.0" r="12.0" fill="#a9e7ff" opacity="0.85"/><rect x="1183.5" y="563.1" width="226.5" height="296.9" fill="#202a32"/><polygon points="1173.5,508.2 1228.8,463.4 1364.8,463.4 1420.1,508.2 1420.1,563.1 1173.5,563.1" fill="#070a0d"/><rect x="1197.1" y="598.7" width="45.3" height="207.9" fill="#070a0d" opacity="0.85"/><rect x="1266.4" y="623.0" width="29.9" height="64.1" fill="#58c7ff" opacity="0.747214627644323"/><rect x="1307.9" y="623.0" width="29.9" height="64.1" fill="#58c7ff" opacity="0.9103578919640691"/><rect x="1349.4" y="623.0" width="29.9" height="64.1" fill="#070a0d" opacity="0.85"/><rect x="1203.9" y="800.0" width="34.0" height="60.0" fill="#58c7ff" opacity="0.4"/><rect x="1410.1" y="553.5" width="192.0" height="306.5" fill="#2a333c"/><polygon points="1404.1,553.5 1506.1,434.4 1608.1,553.5" fill="#070a0d"/><rect x="1502.1" y="408.4" width="8.0" height="30.0" fill="#070a0d"/><rect x="1400.1" y="814.0" width="212.0" height="46.0" fill="#161e24" opacity="0.9"/><rect x="1418.1" y="814.0" width="6.0" height="46.0" fill="#ecefee" opacity="0.5"/><rect x="1476.7" y="814.0" width="6.0" height="46.0" fill="#ecefee" opacity="0.5"/><rect x="1535.4" y="814.0" width="6.0" height="46.0" fill="#ecefee" opacity="0.5"/><rect x="1594.1" y="814.0" width="6.0" height="46.0" fill="#ecefee" opacity="0.5"/><rect x="1410.1" y="682.2" width="192.0" height="5.0" fill="#58c7ff" opacity="0.55"/><rect x="1439.9" y="584.8" width="35.0" height="37.5" fill="#070a0d" opacity="0.85"/><rect x="1488.6" y="584.8" width="35.0" height="37.5" fill="#58c7ff" opacity="0.8617155372419366"/><rect x="1537.2" y="584.8" width="35.0" height="37.5" fill="#58c7ff" opacity="0.6276426409349711"/><rect x="1439.9" y="636.9" width="35.0" height="37.5" fill="#58c7ff" opacity="0.8248136141421825"/><rect x="1488.6" y="636.9" width="35.0" height="37.5" fill="#58c7ff" opacity="0.6921388365163406"/><rect x="1537.2" y="636.9" width="35.0" height="37.5" fill="#58c7ff" opacity="0.5919542029490364"/><rect x="1490.7" y="748.0" width="30.7" height="66.0" fill="#070a0d"/><rect x="1494.7" y="754.0" width="22.7" height="30.0" fill="#58c7ff" opacity="0.5"/><rect x="1602.1" y="629.6" width="159.8" height="230.4" fill="#202a32"/><polygon points="1586.1,629.6 1682.0,575.2 1777.9,629.6" fill="#070a0d"/><rect x="1588.1" y="790.0" width="187.8" height="70.0" fill="#161e24" opacity="0.92"/><rect x="1588.1" y="780.0" width="187.8" height="12.0" fill="#070a0d"/><rect x="1612.1" y="790.0" width="10.0" height="70.0" fill="#ecefee" opacity="0.55"/><rect x="1682.0" y="790.0" width="10.0" height="70.0" fill="#ecefee" opacity="0.55"/><rect x="1751.9" y="790.0" width="10.0" height="70.0" fill="#ecefee" opacity="0.55"/><rect x="1628.5" y="662.5" width="20.7" height="66.4" fill="#070a0d" opacity="0.85"/><rect x="1657.2" y="662.5" width="20.7" height="66.4" fill="#070a0d" opacity="0.85"/><rect x="1686.0" y="662.5" width="20.7" height="66.4" fill="#070a0d" opacity="0.85"/><rect x="1714.8" y="662.5" width="20.7" height="66.4" fill="#58c7ff" opacity="0.8032026422423184"/><rect x="1670.0" y="734.0" width="24.0" height="56.0" fill="#070a0d"/><rect x="1761.9" y="592.3" width="199.3" height="267.7" fill="#31404a"/><rect x="1753.9" y="578.3" width="215.3" height="16.0" fill="#070a0d"/><rect x="1761.9" y="431.7" width="109.6" height="160.6" fill="#31404a"/><rect x="1755.9" y="419.7" width="121.6" height="12.0" fill="#070a0d"/><rect x="1777.8" y="651.2" width="119.6" height="107.1" fill="#58c7ff" opacity="0.5"/><rect x="1782.0" y="658.7" width="21.5" height="38.5" fill="#58c7ff" opacity="0.8927056853069832"/><rect x="1811.9" y="658.7" width="21.5" height="38.5" fill="#58c7ff" opacity="0.8463086295958876"/><rect x="1841.8" y="658.7" width="21.5" height="38.5" fill="#070a0d" opacity="0.85"/><rect x="1871.7" y="658.7" width="21.5" height="38.5" fill="#070a0d" opacity="0.85"/><rect x="1782.0" y="712.2" width="21.5" height="38.5" fill="#58c7ff" opacity="0.6759953733999807"/><rect x="1811.9" y="712.2" width="21.5" height="38.5" fill="#070a0d" opacity="0.85"/><rect x="1841.8" y="712.2" width="21.5" height="38.5" fill="#58c7ff" opacity="0.949341530187553"/><rect x="1871.7" y="712.2" width="21.5" height="38.5" fill="#070a0d" opacity="0.85"/><rect x="1909.3" y="798.0" width="27.9" height="62.0" fill="#070a0d"/></g></svg>