<svg xmlns="http://www.w3.org/2000/svg" viewBox="0 0 1920 1080" width="1920" height="1080" role="img" aria-hidden="true" focusable="false"><rect x="0.0" y="0.0" width="1920.0" height="1080.0" fill="#161e24"/><circle cx="784.4" cy="298.1" r="2.2" fill="#ecefee" opacity="0.3383328220977219"/><circle cx="432.3" cy="34.9" r="1.2" fill="#ecefee" opacity="0.25440281294353345"/><circle cx="300.8" cy="283.6" r="2.4" fill="#ecefee" opacity="0.5967551307157191"/><circle cx="726.6" cy="227.9" r="2.0" fill="#ecefee" opacity="0.41305993630842996"/><circle cx="141.2" cy="451.9" r="1.9" fill="#ecefee" opacity="0.3060049135648238"/><circle cx="134.5" cy="68.6" r="2.3" fill="#ecefee" opacity="0.3038584327068847"/><circle cx="1200.6" cy="517.6" r="1.0" fill="#ecefee" opacity="0.4429394233815854"/><circle cx="916.4" cy="490.5" r="1.3" fill="#ecefee" opacity="0.37917343432872086"/><circle cx="476.1" cy="45.3" r="1.9" fill="#ecefee" opacity="0.6583527202899051"/><circle cx="837.8" cy="39.4" r="2.0" fill="#ecefee" opacity="0.6185230085419702"/><circle cx="1254.6" cy="188.7" r="2.2" fill="#ecefee" opacity="0.5652791017801673"/><circle cx="1132.7" cy="297.4" r="1.3" fill="#ecefee" opacity="0.4777862503882883"/><circle cx="1524.6" cy="370.9" r="1.5" fill="#ecefee" opacity="0.6598069778581974"/><circle cx="1611.7" cy="42.4" r="1.2" fill="#ecefee" opacity="0.3615732523916371"/><circle cx="28.0" cy="406.7" r="1.9" fill="#ecefee" opacity="0.5216008435254467"/><circle cx="1909.8" cy="203.0" r="1.3" fill="#ecefee" opacity="0.30575959146374126"/><circle cx="653.1" cy="450.1" r="1.8" fill="#ecefee" opacity="0.27963626384332224"/><circle cx="831.8" cy="44.6" r="1.9" fill="#ecefee" opacity="0.31124478631720853"/><circle cx="344.5" cy="349.7" r="2.2" fill="#ecefee" opacity="0.5598185384624819"/><circle cx="563.9" cy="351.2" r="1.4" fill="#ecefee" opacity="0.25336962355393805"/><circle cx="525.9" cy="373.2" r="1.9" fill="#ecefee" opacity="0.34631438872982473"/><circle cx="1614.0" cy="446.3" r="1.4" fill="#ecefee" opacity="0.7304654493111564"/><circle cx="504.1" cy="53.3" r="1.7" fill="#ecefee" opacity="0.6824701979323435"/><circle cx="1151.4" cy="300.4" r="1.7" fill="#ecefee" opacity="0.39206931923008587"/><circle cx="575.8" cy="226.9" r="1.8" fill="#ecefee" opacity="0.721427680737464"/><circle cx="139.7" cy="149.4" r="2.3" fill="#ecefee" opacity="0.5786513206825092"/><circle cx="142.8" cy="246.6" r="1.9" fill="#ecefee" opacity="0.7059815393517541"/><circle cx="161.7" cy="483.1" r="2.1" fill="#ecefee" opacity="0.3892973391179705"/><circle cx="1024.2" cy="443.6" r="1.3" fill="#ecefee" opacity="0.6006709308707285"/><circle cx="1075.3" cy="57.5" r="1.4" fill="#ecefee" opacity="0.4562206741122182"/><circle cx="268.0" cy="504.4" r="1.4" fill="#ecefee" opacity="0.365874368419864"/><circle cx="1146.6" cy="290.7" r="1.4" fill="#ecefee" opacity="0.41271535274883586"/><circle cx="953.3" cy="486.6" r="1.1" fill="#ecefee" opacity="0.706022454074481"/><circle cx="1801.0" cy="370.7" r="2.1" fill="#ecefee" opacity="0.44104594951562986"/><circle cx="1848.3" cy="401.0" r="2.0" fill="#ecefee" opacity="0.47449350811435353"/><circle cx="423.7" cy="374.9" r="2.0" fill="#ecefee" opacity="0.25255073358772906"/><circle cx="597.6" cy="294.9" r="1.3" fill="#ecefee" opacity="0.314678788805577"/><circle cx="360.9" cy="28.0" r="1.2" fill="#ecefee" opacity="0.4456880894808023"/><circle cx="962.8" cy="347.6" r="1.4" fill="#ecefee" opacity="0.314105779979089"/><circle cx="1766.7" cy="344.3" r="2.0" fill="#ecefee" opacity="0.5945254678524121"/><circle cx="617.9" cy="324.7" r="1.4" fill="#ecefee" opacity="0.5764422626099748"/><circle cx="1570.3" cy="28.4" r="2.1" fill="#ecefee" opacity="0.30857607422331096"/><circle cx="30.9" cy="58.6" r="1.8" fill="#ecefee" opacity="0.6788789700216549"/><circle cx="1776.7" cy="100.9" r="1.6" fill="#ecefee" opacity="0.7209490771332141"/><circle cx="1704.0" cy="444.0" r="1.3" fill="#ecefee" opacity="0.3873288741819198"/><circle cx="286.2" cy="155.2" r="1.6" fill="#ecefee" opacity="0.6484387038774071"/><circle cx="1267.1" cy="108.3" r="1.3" fill="#ecefee" opacity="0.47528528389947367"/><circle cx="1709.7" cy="262.4" r="2.1" fill="#ecefee" opacity="0.5943700320188607"/><circle cx="1685.7" cy="274.7" r="1.5" fill="#ecefee" opacity="0.47880457383469666"/><circle cx="1539.9" cy="163.0" r="1.3" fill="#ecefee" opacity="0.6684144594707095"/><circle cx="922.2" cy="349.2" r="1.2" fill="#ecefee" opacity="0.2707038311796929"/><circle cx="432.1" cy="240.4" r="1.0" fill="#ecefee" opacity="0.3864944262017293"/><circle cx="1810.6" cy="244.3" r="1.0" fill="#ecefee" opacity="0.6512555015725336"/><circle cx="579.3" cy="108.7" r="1.9" fill="#ecefee" opacity="0.58229567734844"/><circle cx="622.6" cy="384.6" r="2.2" fill="#ecefee" opacity="0.41983349414038057"/><circle cx="954.4" cy="22.8" r="1.8" fill="#ecefee" opacity="0.39614995631617295"/><circle cx="1252.6" cy="409.1" r="1.5" fill="#ecefee" opacity="0.5836299509158521"/><circle cx="1809.9" cy="106.7" r="2.1" fill="#ecefee" opacity="0.48862641695341014"/><circle cx="1811.7" cy="57.5" r="1.5" fill="#ecefee" opacity="0.33105841443117784"/><circle cx="497.3" cy="476.8" r="1.7" fill="#ecefee" opacity="0.42892938881070153"/><circle cx="1848.6" cy="47.0" r="1.0" fill="#ecefee" opacity="0.6339360911880076"/><circle cx="1071.0" cy="447.4" r="1.7" fill="#ecefee" opacity="0.722007284088788"/><circle cx="637.3" cy="137.5" r="2.2" fill="#ecefee" opacity="0.5166478212448591"/><circle cx="57.7" cy="25.3" r="1.0" fill="#ecefee" opacity="0.6147582775281777"/><circle cx="1226.2" cy="78.0" r="2.1" fill="#ecefee" opacity="0.6380225837956255"/><circle cx="1211.5" cy="316.6" r="1.6" fill="#ecefee" opacity="0.5962374733897313"/><circle cx="746.4" cy="495.7" r="1.8" fill="#ecefee" opacity="0.5864526480130441"/><circle cx="1777.3" cy="524.6" r="1.7" fill="#ecefee" opacity="0.3063383871576724"/><circle cx="1008.2" cy="491.5" r="1.3" fill="#ecefee" opacity="0.3777025449508637"/><circle cx="528.3" cy="139.2" r="2.1" fill="#ecefee" opacity="0.5178477031871108"/><circle cx="1651.2" cy="172.8" r="46.0" fill="#ecefee" opacity="0.9"/><circle cx="1641.6" cy="167.4" r="46.0" fill="#161e24" opacity="0.35"/><rect x="-20.0" y="687.0" width="53.6" height="173.0" fill="#161e24" opacity="0.55"/><rect x="-3.9" y="671.0" width="21.4" height="16.0" fill="#161e24" opacity="0.55"/><rect x="42.3" y="768.1" width="43.6" height="91.9" fill="#161e24" opacity="0.55"/><rect x="55.4" y="752.1" width="17.4" height="16.0" fill="#161e24" opacity="0.55"/><rect x="91.6" y="643.6" width="55.6" height="216.4" fill="#161e24" opacity="0.55"/><rect x="108.3" y="627.6" width="22.2" height="16.0" fill="#161e24" opacity="0.55"/><rect x="159.9" y="634.8" width="46.8" height="225.2" fill="#161e24" opacity="0.55"/><rect x="213.6" y="648.1" width="82.4" height="211.9" fill="#161e24" opacity="0.55"/><rect x="238.3" y="632.1" width="33.0" height="16.0" fill="#161e24" opacity="0.55"/><rect x="305.7" y="613.1" width="75.0" height="246.9" fill="#161e24" opacity="0.55"/><rect x="328.2" y="597.1" width="30.0" height="16.0" fill="#161e24" opacity="0.55"/><rect x="388.3" y="606.3" width="78.8" height="253.7" fill="#161e24" opacity="0.55"/><rect x="411.9" y="590.3" width="31.5" height="16.0" fill="#161e24" opacity="0.55"/><rect x="472.3" y="716.1" width="77.6" height="143.9" fill="#161e24" opacity="0.55"/><rect x="566.1" y="657.7" width="77.3" height="202.3" fill="#161e24" opacity="0.55"/><rect x="657.7" y="660.6" width="80.5" height="199.4" fill="#161e24" opacity="0.55"/><rect x="743.0" y="615.0" width="85.5" height="245.0" fill="#161e24" opacity="0.55"/><rect x="0.0" y="860.0" width="1920.0" height="220.0" fill="#070a0d"/><rect x="0.0" y="860.0" width="1920.0" height="6.0" fill="#31404a" opacity="0.6"/><g><rect x="-30.0" y="594.2" width="156.8" height="265.8" fill="#31404a"/><rect x="-38.0" y="580.2" width="172.8" height="16.0" fill="#070a0d"/><rect x="-30.0" y="434.7" width="86.3" height="159.5" fill="#2a333c"/><rect x="-36.0" y="422.7" width="98.3" height="12.0" fill="#070a0d"/><rect x="-17.5" y="652.7" width="94.1" height="106.3" fill="#58c7ff" opacity="0.5"/><rect x="-14.2" y="660.1" width="16.9" height="38.3" fill="#58c7ff" opacity="0.8284630818630567"/><rect x="9.4" y="660.1" width="16.9" height="38.3" fill="#58c7ff" opacity="0.5554952573635963"/><rect x="32.9" y="660.1" width="16.9" height="38.3" fill="#58c7ff" opacity="0.6270002924145629"/><rect x="56.4" y="660.1" width="16.9" height="38.3" fill="#58c7ff" opacity="0.7207083920694071"/><rect x="-14.2" y="713.3" width="16.9" height="38.3" fill="#58c7ff" opacity="0.6817848142320375"/><rect x="9.4" y="713.3" width="16.9" height="38.3" fill="#58c7ff" opacity="0.6805467798362189"/><rect x="32.9" y="713.3" width="16.9" height="38.3" fill="#58c7ff" opacity="0.7650154538760396"/><rect x="56.4" y="713.3" width="16.9" height="38.3" fill="#58c7ff" opacity="0.6136617059751216"/><rect x="86.1" y="798.0" width="22.0" height="62.0" fill="#070a0d"/><rect x="138.8" y="764.0" width="8.0" height="96.0" fill="#070a0d"/><circle cx="142.8" cy="760.0" r="12.0" fill="#a9e7ff" opacity="0.85"/><rect x="181.1" y="551.9" width="202.7" height="308.1" fill="#202a32"/><polygon points="173.1,551.9 282.4,491.1 391.8,551.9" fill="#070a0d"/><rect x="266.2" y="501.1" width="32.4" height="40.0" fill="#161e24"/><rect x="206.3" y="601.1" width="25.5" height="31.1" fill="#58c7ff" opacity="0.8563879498492903"/><rect x="241.8" y="601.1" width="25.5" height="31.1" fill="#58c7ff" opacity="0.7624966201387446"/><rect x="206.3" y="644.2" width="25.5" height="31.1" fill="#58c7ff" opacity="0.5549326080527159"/><rect x="241.8" y="644.2" width="25.5" height="31.1" fill="#58c7ff" opacity="0.6250449552831556"/><rect x="297.5" y="601.1" width="25.5" height="31.1" fill="#58c7ff" opacity="0.7611943929027782"/><rect x="333.0" y="601.1" width="25.5" height="31.1" fill="#070a0d" opacity="0.85"/><rect x="297.5" y="644.2" width="25.5" height="31.1" fill="#58c7ff" opacity="0.6130275496090551"/><rect x="333.0" y="644.2" width="25.5" height="31.1" fill="#58c7ff" opacity="0.7646809997744892"/><rect x="268.2" y="796.0" width="28.4" height="64.0" fill="#070a0d"/><polygon points="258.2,796.0 282.4,768.0 306.6,796.0" fill="#202a32"/><rect x="383.8" y="657.5" width="187.7" height="202.5" fill="#31404a"/><polygon points="377.8,657.5 477.6,559.9 577.5,657.5" fill="#070a0d"/><polygon points="443.8,613.6 472.0,585.4 500.2,613.6" fill="#070a0d"/><rect x="459.6" y="619.6" width="24.8" height="33.9" fill="#31404a"/><rect x="422.7" y="723.3" width="46.0" height="46.6" fill="#070a0d" opacity="0.85"/><rect x="486.6" y="723.3" width="46.0" height="46.6" fill="#070a0d" opacity="0.85"/><rect x="458.9" y="802.0" width="37.5" height="58.0" fill="#070a0d"/><rect x="571.5" y="563.3" width="188.8" height="296.7" fill="#31404a"/><polygon points="561.5,517.6 609.3,480.2 722.5,480.2 770.3,517.6 770.3,563.3 561.5,563.3" fill="#070a0d"/><rect x="582.8" y="598.9" width="37.8" height="207.7" fill="#070a0d" opacity="0.85"/><rect x="640.5" y="623.2" width="24.9" height="64.1" fill="#58c7ff" opacity="0.945961826767681"/><rect x="675.2" y="623.2" width="24.9" height="64.1" fill="#58c7ff" opacity="0.8036691961390154"/><rect x="709.8" y="623.2" width="24.9" height="64.1" fill="#070a0d" opacity="0.85"/><rect x="588.5" y="800.0" width="28.3" height="60.0" fill="#58c7ff" opacity="0.4"/><rect x="760.3" y="557.5" width="179.6" height="302.5" fill="#202a32"/><polygon points="754.3,557.5 850.1,446.2 945.9,557.5" fill="#070a0d"/><rect x="846.1" y="420.2" width="8.0" height="30.0" fill="#070a0d"/><rect x="760.3" y="487.5" width="50.3" height="372.5" fill="#202a32"/><polygon points="756.3,487.5 785.5,442.3 814.6,487.5" fill="#070a0d"/><rect x="750.3" y="814.0" width="199.6" height="46.0" fill="#161e24" opacity="0.9"/><rect x="768.3" y="814.0" width="6.0" height="46.0" fill="#ecefee" opacity="0.5"/><rect x="822.9" y="814.0" width="6.0" height="46.0" fill="#ecefee" opacity="0.5"/><rect x="877.4" y="814.0" width="6.0" height="46.0" fill="#ecefee" opacity="0.5"/><rect x="931.9" y="814.0" width="6.0" height="46.0" fill="#ecefee" opacity="0.5"/><rect x="760.3" y="684.6" width="179.6" height="5.0" fill="#58c7ff" opacity="0.55"/><rect x="788.2" y="588.7" width="32.8" height="37.0" fill="#58c7ff" opacity="0.9112100289730678"/><rect x="833.7" y="588.7" width="32.8" height="37.0" fill="#58c7ff" opacity="0.5590453259750167"/><rect x="879.2" y="588.7" width="32.8" height="37.0" fill="#58c7ff" opacity="0.8039401977987538"/><rect x="788.2" y="640.1" width="32.8" height="37.0" fill="#070a0d" opacity="0.85"/><rect x="833.7" y="640.1" width="32.8" height="37.0" fill="#070a0d" opacity="0.85"/><rect x="879.2" y="640.1" width="32.8" height="37.0" fill="#58c7ff" opacity="0.931589988351009"/><rect x="835.8" y="748.0" width="28.7" height="66.0" fill="#070a0d"/><rect x="839.8" y="754.0" width="20.7" height="30.0" fill="#58c7ff" opacity="0.5"/><rect x="956.9" y="795.3" width="10.0" height="64.7" fill="#070a0d" opacity="0.8"/><circle cx="961.9" cy="771.8" r="46.9" fill="#202a32" opacity="0.9"/><circle cx="936.1" cy="783.6" r="33.8" fill="#202a32" opacity="0.9"/><circle cx="987.7" cy="781.2" r="33.8" fill="#202a32" opacity="0.9"/><rect x="988.3" y="628.2" width="212.8" height="231.8" fill="#10161b"/><polygon points="967.0,628.2 1094.7,555.8 1222.3,628.2" fill="#070a0d"/><rect x="974.3" y="790.0" width="240.8" height="70.0" fill="#161e24" opacity="0.92"/><rect x="974.3" y="780.0" width="240.8" height="12.0" fill="#070a0d"/><rect x="998.3" y="790.0" width="10.0" height="70.0" fill="#ecefee" opacity="0.55"/><rect x="1094.7" y="790.0" width="10.0" height="70.0" fill="#ecefee" opacity="0.55"/><rect x="1191.1" y="790.0" width="10.0" height="70.0" fill="#ecefee" opacity="0.55"/><rect x="1023.4" y="661.1" width="27.6" height="66.8" fill="#58c7ff" opacity="0.9255019058027558"/><rect x="1061.7" y="661.1" width="27.6" height="66.8" fill="#070a0d" opacity="0.85"/><rect x="1100.0" y="661.1" width="27.6" height="66.8" fill="#58c7ff" opacity="0.5909805078610875"/><rect x="1138.3" y="661.1" width="27.6" height="66.8" fill="#070a0d" opacity="0.85"/><rect x="1078.7" y="734.0" width="31.9" height="56.0" fill="#070a0d"/><rect x="1201.1" y="616.7" width="170.5" height="243.3" fill="#10161b"/><rect x="1193.1" y="602.7" width="186.5" height="16.0" fill="#070a0d"/><rect x="1201.1" y="470.7" width="93.8" height="146.0" fill="#202a32"/><rect x="1195.1" y="458.7" width="105.8" height="12.0" fill="#070a0d"/><rect x="1214.7" y="670.2" width="102.3" height="97.3" fill="#58c7ff" opacity="0.5"/><rect x="1218.3" y="677.0" width="18.4" height="35.0" fill="#58c7ff" opacity="0.7195512154246018"/><rect x="1243.8" y="677.0" width="18.4" height="35.0" fill="#58c7ff" opacity="0.5843621189425007"/><rect x="1269.4" y="677.0" width="18.4" height="35.0" fill="#58c7ff" opacity="0.7140667645064127"/><rect x="1295.0" y="677.0" width="18.4" height="35.0" fill="#070a0d" opacity="0.85"/><rect x="1218.3" y="725.7" width="18.4" height="35.0" fill="#58c7ff" opacity="0.8035381033063487"/><rect x="1243.8" y="725.7" width="18.4" height="35.0" fill="#58c7ff" opacity="0.8599447563572551"/><rect x="1269.4" y="725.7" width="18.4" height="35.0" fill="#58c7ff" opacity="0.6265881011402649"/><rect x="1295.0" y="725.7" width="18.4" height="35.0" fill="#070a0d" opacity="0.85"/><rect x="1327.2" y="798.0" width="23.9" height="62.0" fill="#070a0d"/><rect x="1383.5" y="764.0" width="8.0" height="96.0" fill="#070a0d"/><circle cx="1387.5" cy="760.0" r="12.0" fill="#a9e7ff" opacity="0.85"/><rect x="1412.0" y="574.1" width="175.1" height="285.9" fill="#202a32"/><polygon points="1404.0,574.1 1499.5,521.6 1595.0,574.1" fill="#070a0d"/><rect x="1485.5" y="531.6" width="28.0" height="40.0" fill="#161e24"/><rect x="1433.8" y="619.8" width="22.1" height="28.8" fill="#58c7ff" opacity="0.5697065489792538"/><rect x="1464.4" y="619.8" width="22.1" height="28.8" fill="#070a0d" opacity="0.85"/><rect x="1433.8" y="659.8" width="22.1" height="28.8" fill="#58c7ff" opacity="0.720278663292293"/><rect x="1464.4" y="659.8" width="22.1" height="28.8" fill="#58c7ff" opacity="0.7552488474847799"/><rect x="1512.5" y="619.8" width="22.1" height="28.8" fill="#58c7ff" opacity="0.6863700058360707"/><rect x="1543.2" y="619.8" width="22.1" height="28.8" fill="#070a0d" opacity="0.85"/><rect x="1512.5" y="659.8" width="22.1" height="28.8" fill="#070a0d" opacity="0.85"/><rect x="1543.2" y="659.8" width="22.1" height="28.8" fill="#070a0d" opacity="0.85"/><rect x="1487.2" y="796.0" width="24.5" height="64.0" fill="#070a0d"/><polygon points="1477.2,796.0 1499.5,768.0 1521.7,796.0" fill="#202a32"/><rect x="1587.0" y="685.8" width="224.4" height="174.2" fill="#10161b"/><polygon points="1581.0,685.8 1699.2,569.1 1817.4,685.8" fill="#070a0d"/><polygon points="1658.8,633.2 1692.5,599.6 1726.2,633.2" fill="#070a0d"/><rect x="1677.7" y="639.2" width="29.6" height="42.5" fill="#10161b"/><rect x="1633.6" y="742.4" width="54.9" height="40.1" fill="#58c7ff" opacity="0.8278340133753922"/><rect x="1709.9" y="742.4" width="54.9" height="40.1" fill="#58c7ff" opacity="0.6005456570664264"/><rect x="1676.8" y="802.0" width="44.9" height="58.0" fill="#070a0d"/><rect x="1828.4" y="799.7" width="10.0" height="60.3" fill="#070a0d" opacity="0.8"/><circle cx="1833.4" cy="782.1" r="35.1" fill="#202a32" opacity="0.9"/><circle cx="1814.1" cy="790.9" r="25.3" fill="#202a32" opacity="0.9"/><circle cx="1852.8" cy="789.2" r="25.3" fill="#202a32" opacity="0.9"/><rect x="1870.1" y="598.8" width="190.8" height="261.2" fill="#31404a"/><polygon points="1860.1,552.6 1908.2,514.8 2022.7,514.8 2070.9,552.6 2070.9,598.8 1860.1,598.8" fill="#070a0d"/><rect x="1881.5" y="630.1" width="38.2" height="182.9" fill="#070a0d" opacity="0.85"/><rect x="1939.8" y="651.5" width="25.2" height="56.4" fill="#58c7ff" opacity="0.9024239153180837"/><rect x="1974.8" y="651.5" width="25.2" height="56.4" fill="#58c7ff" opacity="0.5985777630079"/><rect x="2009.8" y="651.5" width="25.2" height="56.4" fill="#58c7ff" opacity="0.8795952753342218"/><rect x="1887.2" y="800.0" width="28.6" height="60.0" fill="#58c7ff" opacity="0.4"/></g></svg>